<svg width="279" height="83" viewBox="0 0 279 83" fill="none" xmlns="http://www.w3.org/2000/svg">
<path d="M119.049 47.88L119.241 53.256C119.241 53.9813 119.326 54.4933 119.497 54.792C119.71 55.048 120.073 55.176 120.585 55.176C121.054 55.176 121.63 55.0907 122.312 54.92L122.889 55.432L122.185 59.912C120.734 60.808 119.155 61.3413 117.449 61.512C116.126 61.384 115.017 60.936 114.121 60.168C113.225 59.4 112.606 58.3547 112.265 57.032H111.753C109.662 58.952 107.529 60.424 105.353 61.448C101.171 61.448 97.9285 60.1253 95.6245 57.48C93.3205 54.792 92.1685 51.08 92.1685 46.344C92.1685 41.3093 93.4912 37.448 96.1365 34.76C98.7818 32.072 102.451 30.728 107.145 30.728C108.382 30.728 109.747 30.856 111.241 31.112L111.113 16.712L119.561 16.072L119.049 47.88ZM106.569 36.488C102.302 36.488 100.169 39.1973 100.169 44.616C100.169 47.9867 100.681 50.5253 101.705 52.232C102.729 53.9387 104.222 54.792 106.185 54.792C108.062 54.792 109.79 53.9173 111.369 52.168L111.497 48.648L111.305 37.64C109.641 36.872 108.062 36.488 106.569 36.488ZM133.024 35.784L138.336 52.424H138.848L144.16 36.488L145.248 31.24H152.544L142.816 59.016C141.792 61.9173 140.64 64.2427 139.36 65.992C138.08 67.784 136.48 69.2347 134.56 70.344C132.64 71.496 130.165 72.4773 127.136 73.288L126.496 73.224C125.045 71.816 123.851 70.152 122.912 68.232L123.168 67.4C125.856 66.9307 128.075 66.2267 129.824 65.288C131.573 64.392 133.237 62.9627 134.816 61L123.936 31.432L132 31.048L133.024 35.784ZM174.833 42.44C174.876 40.9467 174.534 39.7947 173.809 38.984C173.126 38.1307 172.124 37.704 170.801 37.704C168.881 37.704 166.833 38.6213 164.657 40.456V47.88L165.041 61H156.529L156.977 48.712L156.657 31.816L164.721 31.112V35.464H165.169C167.516 33.3307 170.076 31.7947 172.849 30.856C176.092 30.856 178.566 31.6027 180.273 33.096C181.98 34.5467 182.79 36.6587 182.705 39.432L182.513 47.944L182.897 61H174.321L174.833 42.44ZM193.988 52.36C195.311 52.36 196.335 52.744 197.06 53.512C197.828 54.28 198.212 55.3467 198.212 56.712C198.212 58.1627 197.807 59.3147 196.996 60.168C196.185 61.0213 195.076 61.448 193.668 61.448C192.26 61.448 191.172 61.064 190.404 60.296C189.679 59.528 189.316 58.44 189.316 57.032C189.316 55.624 189.721 54.4933 190.532 53.64C191.385 52.7867 192.537 52.36 193.988 52.36ZM216.741 30.664C220.026 30.664 222.586 31.4107 224.421 32.904C226.298 34.3547 227.237 36.4027 227.237 39.048C227.237 39.816 227.109 42.248 226.853 46.344C226.81 47.5387 226.746 48.776 226.661 50.056C226.576 51.2933 226.533 52.36 226.533 53.256C226.533 53.9813 226.64 54.4933 226.853 54.792C227.066 55.048 227.45 55.176 228.005 55.176C228.432 55.176 228.986 55.0907 229.669 54.92L230.309 55.432L229.541 59.912C228.176 60.808 226.618 61.3413 224.869 61.512C223.589 61.384 222.522 60.936 221.669 60.168C220.816 59.3573 220.24 58.248 219.941 56.84H219.493C217.36 59.1013 215.162 60.68 212.901 61.576C209.829 61.5333 207.418 60.7227 205.669 59.144C203.92 57.5653 203.045 55.4107 203.045 52.68C203.045 50.5467 203.578 48.8827 204.645 47.688C205.754 46.4507 207.418 45.6187 209.637 45.192L219.429 43.336V40.712C219.429 37.9387 218.064 36.552 215.333 36.552C214.01 36.552 212.602 36.8507 211.109 37.448C209.658 38.0453 208.016 38.984 206.181 40.264L205.541 39.88L204.581 34.248C206.416 33.096 208.378 32.2213 210.469 31.624C212.56 30.984 214.65 30.664 216.741 30.664ZM212.581 49.096C211.898 49.2667 211.386 49.5653 211.045 49.992C210.746 50.376 210.597 50.9733 210.597 51.784C210.597 52.8933 210.896 53.768 211.493 54.408C212.09 55.0053 212.922 55.304 213.989 55.304C215.653 55.304 217.402 54.3227 219.237 52.36L219.365 47.624L212.581 49.096ZM251.915 31.176C252.299 31.176 252.832 31.2187 253.515 31.304V39.176L252.619 39.496C251.893 39.1973 251.104 39.048 250.251 39.048C247.776 39.048 245.536 40.648 243.531 43.848V47.88L243.979 61H235.467L235.979 48.712L235.595 31.816L243.659 31.112L243.595 36.936H244.107C246.197 33.096 248.8 31.176 251.915 31.176ZM269.999 54.728C271.364 54.728 272.793 54.3653 274.287 53.64L274.991 54.28L274.159 59.336C271.983 60.4453 269.764 61.128 267.503 61.384C261.743 60.7867 258.863 57.9707 258.863 52.936L259.183 47.624L259.119 36.616H255.151L254.831 36.168L255.279 31.496H259.055V26.568L266.799 24.072L267.375 24.584L267.183 31.496H274.799L275.055 31.944L274.671 36.616H267.055L266.671 50.952C266.671 52.3173 266.927 53.2987 267.439 53.896C267.951 54.4507 268.804 54.728 269.999 54.728Z" fill="black"/>
<path d="M14.5228 73.0001C13.7578 71.1301 13.4376 68.9997 13.7286 66.6832C14.292 62.2 15.4537 57.8028 17.1901 53.6107C19.7363 47.4636 23.4684 41.8781 28.1733 37.1733C32.8781 32.4684 38.4636 28.7364 44.6107 26.1901C48.8027 24.4537 53.2 23.292 57.6831 22.7287C57.8668 22.7056 58.0493 22.6863 58.2306 22.6709C57.1602 21.1391 55.9552 19.7003 54.6275 18.3726C51.656 15.4011 48.1283 13.044 44.2459 11.4359C40.3635 9.8277 36.2023 9 32 9H5.33334C2.38782 9 0 11.3878 0 14.3333V67.6667C0 70.6122 2.38782 73.0001 5.33334 73.0001H14.5228Z" fill="black"/>
<path d="M64.0001 35.6667C64.0001 32.7212 61.6032 30.2991 58.6806 30.6663C54.9053 31.1407 51.2024 32.119 47.6723 33.5812C42.4957 35.7254 37.7922 38.8682 33.8302 42.8302C29.8682 46.7922 26.7254 51.4957 24.5812 56.6723C23.119 60.2024 22.1407 63.9053 21.6663 67.6806C21.2991 70.6032 23.7212 73.0001 26.6668 73.0001L58.6668 73.0001C61.6123 73.0001 64.0001 70.6123 64.0001 67.6668V35.6667Z" fill="black"/>
</svg>
