<svg width="709" height="625" viewBox="0 0 709 625" fill="none" xmlns="http://www.w3.org/2000/svg">
<path d="M694.543 282.795C668.14 187.645 608.61 96.1779 541.409 44.1543C446.216 -29.5398 348.388 84.8116 230.343 108.435C199.628 113.74 173.628 118.876 151.463 124.097C48.8535 148.266 3.85443 254.095 0.389534 359.455C-0.489441 386.183 0.147624 409.132 2.01275 429.471C13.4599 554.305 82.0153 648.917 197.963 601.266C253.934 578.264 355.159 534.321 415.047 525.65C533.094 508.559 609.814 502.785 656.434 471.3C713.55 432.726 712.971 349.207 694.543 282.795Z" fill="url(#paint0_linear_10_357)"/>
<path d="M300.186 390.049C299.313 396.999 300.273 403.39 302.568 409H275C266.163 409 259 401.837 259 393V233C259 224.163 266.163 217 275 217H355C367.607 217 380.09 219.483 391.738 224.308C403.385 229.132 413.968 236.203 422.882 245.118C426.865 249.101 430.48 253.417 433.692 258.013C433.148 258.059 432.6 258.117 432.049 258.186C418.6 259.876 405.408 263.361 392.832 268.57C374.391 276.209 357.634 287.405 343.52 301.52C329.405 315.634 318.209 332.391 310.57 350.832C305.361 363.408 301.876 376.6 300.186 390.049Z" fill="white"/>
<path d="M435.041 281.999C443.809 280.897 451 288.163 451 297V393C451 401.836 443.836 409 435 409L339 409C330.163 409 322.897 401.809 323.999 393.041C325.422 381.716 328.357 370.607 332.743 360.016C339.176 344.487 348.604 330.376 360.49 318.49C372.376 306.604 386.487 297.176 402.016 290.743C412.607 286.357 423.715 283.422 435.041 281.999Z" fill="white"/>
<defs>
<linearGradient id="paint0_linear_10_357" x1="359.247" y1="-459.841" x2="-331.679" y2="160.345" gradientUnits="userSpaceOnUse">
<stop stop-color="#FEDC2A"/>
<stop offset="0.51418" stop-color="#DD5789"/>
<stop offset="1" stop-color="#7A2C9E"/>
</linearGradient>
</defs>
</svg>
