<svg width="460" height="96" viewBox="0 0 460 96" fill="none" xmlns="http://www.w3.org/2000/svg">
<rect width="96" height="96" rx="15.36" fill="#F0E81A"/>
<path d="M46.4885 23.2007C48.0433 23.8447 49.4827 24.7325 50.7534 25.8283C51.0468 26.0813 51.3312 26.3453 51.6059 26.6201C53.0707 28.0848 54.2326 29.8238 55.0253 31.7375C55.818 33.6513 56.226 35.7025 56.226 37.774C56.226 39.6434 55.8937 41.4963 55.2463 43.2466H56.226C58.2975 43.2466 60.3487 43.6546 62.2625 44.4473C63.8173 45.0913 65.2567 45.979 66.5274 47.0748C66.8208 47.3278 67.1052 47.5919 67.3799 47.8667C68.8447 49.3314 70.0066 51.0703 70.7993 52.9841C71.592 54.8979 72 56.9491 72 59.0206C72 61.092 71.592 63.1432 70.7993 65.057C70.0066 66.9708 68.8446 68.7097 67.3799 70.1744C67.1051 70.4492 66.8208 70.7133 66.5274 70.9663C65.2566 72.0621 63.8173 72.9498 62.2624 73.5938C60.3486 74.3865 58.2975 74.7945 56.226 74.7945H45.9247C43.08 74.7945 40.774 72.4885 40.774 69.6438C40.774 66.7992 43.08 64.4931 45.9247 64.4931H56.226L56.226 64.4944C56.9449 64.4944 57.6567 64.3529 58.3208 64.0778C58.9849 63.8027 59.5883 63.3995 60.0966 62.8912C60.6049 62.3829 61.0081 61.7794 61.2832 61.1153C61.5583 60.4512 61.6999 59.7394 61.6999 59.0206C61.6999 58.3017 61.5583 57.5899 61.2832 56.9258C61.0082 56.2617 60.605 55.6582 60.0967 55.1499C59.5884 54.6416 58.9849 54.2384 58.3208 53.9633C57.6567 53.6882 56.9449 53.5467 56.226 53.5467V53.5479H30.1507C27.306 53.5479 25 51.2419 25 48.3973C25 45.5526 27.306 43.2466 30.1507 43.2466H40.5707C41.2491 43.2319 41.9193 43.0911 42.5468 42.8312C43.2109 42.5561 43.8144 42.1529 44.3227 41.6446C44.831 41.1363 45.2342 40.5329 45.5093 39.8687C45.7844 39.2046 45.9259 38.4928 45.9259 37.774C45.9259 37.0551 45.7844 36.3433 45.5093 35.6792C45.2342 35.0151 44.831 34.4117 44.3227 33.9034C43.8144 33.3951 43.2109 32.9919 42.5468 32.7168C41.8827 32.4417 41.1709 32.3001 40.4521 32.3001V32.3014H30.1507C27.306 32.3014 25 29.9953 25 27.1507C25 24.306 27.306 22 30.1507 22H40.4521C42.5235 22 44.5747 22.408 46.4885 23.2007Z" fill="black"/>
<path d="M25 69.6438C25 66.7992 27.306 64.4931 30.1507 64.4931H33.0479C35.8926 64.4931 38.1986 66.7992 38.1986 69.6438C38.1986 72.4885 35.8926 74.7945 33.0479 74.7945H30.1507C27.306 74.7945 25 72.4885 25 69.6438Z" fill="black"/>
<path d="M112.48 55.712L112.16 38.816L120.544 38.112L120.16 54.88L120.544 68H112.032L112.48 55.712ZM116.512 23.648C117.835 23.648 118.859 24.032 119.584 24.8C120.352 25.568 120.736 26.6347 120.736 28C120.736 29.4507 120.331 30.6027 119.52 31.456C118.709 32.3093 117.6 32.736 116.192 32.736C114.784 32.736 113.696 32.352 112.928 31.584C112.203 30.816 111.84 29.728 111.84 28.32C111.84 26.912 112.245 25.7813 113.056 24.928C113.909 24.0747 115.061 23.648 116.512 23.648ZM146.896 49.44C146.938 47.9467 146.597 46.7947 145.872 45.984C145.189 45.1307 144.186 44.704 142.864 44.704C140.944 44.704 138.896 45.6213 136.72 47.456V54.88L137.104 68H128.592L129.04 55.712L128.72 38.816L136.784 38.112V42.464H137.232C139.578 40.3307 142.138 38.7947 144.912 37.856C148.154 37.856 150.629 38.6027 152.336 40.096C154.042 41.5467 154.853 43.6587 154.768 46.432L154.576 54.944L154.96 68H146.384L146.896 49.44ZM178.531 37.856C182.285 37.856 185.144 39.136 187.107 41.696C189.112 44.2133 190.115 47.7333 190.115 52.256C190.115 57.504 188.813 61.5573 186.211 64.416C183.608 67.232 180.003 68.64 175.395 68.64C173.219 68.64 170.829 68.1493 168.227 67.168L163.747 68.768L162.723 67.936L163.171 55.776L162.786 23.712L171.235 23.072L170.979 42.464H171.363C172.557 41.312 173.709 40.3947 174.819 39.712C175.928 38.9867 177.165 38.368 178.531 37.856ZM175.395 63.072C177.528 63.072 179.192 62.304 180.387 60.768C181.581 59.232 182.179 56.8853 182.179 53.728C182.179 50.784 181.688 48.544 180.707 47.008C179.768 45.472 178.339 44.704 176.419 44.704C174.669 44.704 172.835 45.6 170.915 47.392L170.787 54.688L170.915 61.92C172.493 62.688 173.987 63.072 175.395 63.072ZM219.007 54.176L201.727 54.304C202.111 59.6373 204.82 62.304 209.855 62.304C212.5 62.304 215.444 61.5573 218.687 60.064L219.391 60.512L218.111 66.848C214.868 68.0427 211.817 68.64 208.958 68.64C204.265 68.64 200.575 67.2747 197.887 64.544C195.241 61.8133 193.919 58.0373 193.919 53.216C193.919 48.4373 195.22 44.6613 197.823 41.888C200.425 39.072 203.945 37.664 208.383 37.664C212.18 37.664 215.103 38.7093 217.151 40.8C219.241 42.848 220.287 45.728 220.287 49.44C220.287 50.4213 220.18 51.6587 219.967 53.152L219.007 54.176ZM212.863 48.48C212.863 46.7733 212.479 45.4933 211.711 44.64C210.943 43.744 209.812 43.296 208.319 43.296C206.655 43.296 205.268 43.8507 204.159 44.96C203.049 46.0267 202.303 47.584 201.919 49.632L212.735 49.376L212.863 48.48ZM238.186 61.728C239.551 61.728 240.981 61.3653 242.474 60.64L243.178 61.28L242.346 66.336C240.17 67.4453 237.951 68.128 235.69 68.384C229.93 67.7867 227.05 64.9707 227.05 59.936L227.37 54.624L227.306 43.616H223.338L223.018 43.168L223.466 38.496H227.242V33.568L234.986 31.072L235.562 31.584L235.37 38.496H242.986L243.242 38.944L242.858 43.616H235.242L234.858 57.952C234.858 59.3173 235.114 60.2987 235.626 60.896C236.138 61.4507 236.991 61.728 238.186 61.728ZM259.491 37.664C262.776 37.664 265.336 38.4107 267.171 39.904C269.048 41.3547 269.987 43.4027 269.987 46.048C269.987 46.816 269.859 49.248 269.603 53.344C269.56 54.5387 269.496 55.776 269.411 57.056C269.326 58.2933 269.283 59.36 269.283 60.256C269.283 60.9813 269.39 61.4933 269.603 61.792C269.816 62.048 270.2 62.176 270.755 62.176C271.182 62.176 271.736 62.0907 272.419 61.92L273.059 62.432L272.291 66.912C270.926 67.808 269.368 68.3413 267.619 68.512C266.339 68.384 265.272 67.936 264.419 67.168C263.566 66.3573 262.99 65.248 262.691 63.84H262.243C260.11 66.1013 257.912 67.68 255.651 68.576C252.579 68.5333 250.168 67.7227 248.419 66.144C246.67 64.5653 245.795 62.4107 245.795 59.68C245.795 57.5467 246.328 55.8827 247.395 54.688C248.504 53.4507 250.168 52.6187 252.387 52.192L262.179 50.336V47.712C262.179 44.9387 260.814 43.552 258.083 43.552C256.76 43.552 255.352 43.8507 253.859 44.448C252.408 45.0453 250.766 45.984 248.931 47.264L248.291 46.88L247.331 41.248C249.166 40.096 251.128 39.2213 253.219 38.624C255.31 37.984 257.4 37.664 259.491 37.664ZM255.331 56.096C254.648 56.2667 254.136 56.5653 253.795 56.992C253.496 57.376 253.347 57.9733 253.347 58.784C253.347 59.8933 253.646 60.768 254.243 61.408C254.84 62.0053 255.672 62.304 256.739 62.304C258.403 62.304 260.152 61.3227 261.987 59.36L262.115 54.624L255.331 56.096ZM282.176 59.36C283.498 59.36 284.522 59.744 285.248 60.512C286.016 61.28 286.4 62.3467 286.4 63.712C286.4 65.1627 285.994 66.3147 285.184 67.168C284.373 68.0213 283.264 68.448 281.856 68.448C280.448 68.448 279.36 68.064 278.592 67.296C277.866 66.528 277.504 65.44 277.504 64.032C277.504 62.624 277.909 61.4933 278.72 60.64C279.573 59.7867 280.725 59.36 282.176 59.36ZM321.825 42.272C320.673 42.5707 319.03 42.8907 316.897 43.232L316.769 43.488C317.409 44.768 317.729 46.1973 317.729 47.776C317.729 50.976 316.555 53.536 314.209 55.456C311.905 57.3333 308.769 58.272 304.801 58.272C303.606 58.272 302.369 58.1653 301.089 57.952C300.705 58.336 300.449 58.6347 300.321 58.848C300.193 59.0613 300.129 59.3173 300.129 59.616C300.129 60.384 300.641 60.9173 301.665 61.216C302.689 61.5147 304.31 61.8133 306.529 62.112C309.046 62.4107 311.137 62.7733 312.801 63.2C314.507 63.6267 315.958 64.3733 317.153 65.44C318.39 66.5067 319.009 68.0213 319.009 69.984C319.009 71.9893 318.369 73.7813 317.089 75.36C315.851 76.9813 314.123 78.24 311.905 79.136C309.686 80.032 307.169 80.48 304.353 80.48C300.47 80.48 297.483 79.6907 295.393 78.112C293.302 76.5333 292.257 74.4427 292.257 71.84C293.579 70.0053 295.35 68.4053 297.569 67.04V66.72C296.118 66.208 294.987 65.504 294.177 64.608C293.366 63.6693 292.961 62.432 292.961 60.896C294.113 59.488 295.563 58.1867 297.312 56.992V56.672C295.777 55.8187 294.603 54.7093 293.793 53.344C293.025 51.936 292.641 50.2933 292.641 48.416C292.641 45.088 293.793 42.4853 296.097 40.608C298.401 38.7307 301.537 37.792 305.505 37.792C307.809 37.792 309.899 38.176 311.777 38.944C314.849 38.3893 317.985 37.536 321.185 36.384L321.825 36.96V42.272ZM305.057 53.152C306.806 53.152 308.129 52.704 309.025 51.808C309.921 50.912 310.369 49.6107 310.369 47.904C310.369 44.6613 308.705 43.04 305.377 43.04C301.793 43.04 300.001 44.6827 300.001 47.968C300.001 49.6747 300.427 50.976 301.281 51.872C302.134 52.7253 303.393 53.152 305.057 53.152ZM311.841 71.52C311.841 70.368 311.222 69.5787 309.985 69.152C308.79 68.7253 306.934 68.3627 304.417 68.064L302.241 67.744C301.217 68.4267 300.449 69.088 299.937 69.728C299.425 70.368 299.169 71.0507 299.169 71.776C299.169 72.8853 299.681 73.7813 300.705 74.464C301.729 75.1467 303.222 75.488 305.185 75.488C307.19 75.488 308.79 75.1253 309.985 74.4C311.222 73.7173 311.841 72.7573 311.841 71.52ZM341.665 38.176C342.049 38.176 342.582 38.2187 343.265 38.304V46.176L342.369 46.496C341.643 46.1973 340.854 46.048 340.001 46.048C337.526 46.048 335.286 47.648 333.281 50.848V54.88L333.729 68H325.217L325.729 55.712L325.345 38.816L333.409 38.112L333.345 43.936H333.857C335.947 40.096 338.55 38.176 341.665 38.176ZM359.819 37.664C364.171 37.664 367.499 38.944 369.803 41.504C372.107 44.064 373.259 47.7547 373.259 52.576C373.259 57.7813 372.021 61.7707 369.547 64.544C367.072 67.2747 363.509 68.64 358.859 68.64C354.507 68.64 351.179 67.36 348.875 64.8C346.571 62.24 345.419 58.5493 345.419 53.728C345.419 48.5227 346.656 44.5547 349.131 41.824C351.605 39.0507 355.168 37.664 359.819 37.664ZM359.243 43.424C357.195 43.424 355.701 44.1067 354.763 45.472C353.867 46.8373 353.419 49.0347 353.419 52.064C353.419 55.9893 353.888 58.784 354.827 60.448C355.765 62.112 357.301 62.944 359.435 62.944C361.483 62.944 362.955 62.2827 363.851 60.96C364.789 59.5947 365.259 57.376 365.259 54.304C365.259 50.4213 364.768 47.648 363.787 45.984C362.848 44.2773 361.333 43.424 359.243 43.424ZM407.507 62.432L406.74 66.912C405.161 67.936 403.54 68.4693 401.876 68.512C400.638 68.2987 399.614 67.808 398.804 67.04C397.993 66.272 397.374 65.1627 396.948 63.712H396.372C393.94 66.1013 391.422 67.6587 388.82 68.384C385.577 68.384 383.102 67.6587 381.396 66.208C379.732 64.7147 378.921 62.5813 378.964 59.808L379.092 52.256L378.772 38.816L387.028 38.112L386.836 56.992C386.793 58.4853 387.092 59.616 387.732 60.384C388.372 61.152 389.332 61.536 390.612 61.536C392.489 61.536 394.345 60.704 396.18 59.04V38.816L404.308 38.112L403.732 60.256C403.732 60.9387 403.838 61.4293 404.052 61.728C404.308 62.0267 404.692 62.176 405.204 62.176C405.673 62.176 406.249 62.0907 406.932 61.92L407.507 62.432ZM428.273 37.856C431.985 37.856 434.844 39.1147 436.849 41.632C438.854 44.1493 439.857 47.712 439.857 52.32C439.857 57.5253 438.556 61.5573 435.953 64.416C433.393 67.232 429.766 68.64 425.073 68.64C423.708 68.64 422.278 68.512 420.785 68.256L420.977 79.84H412.529L412.977 55.712L412.593 38.816L420.721 38.112L420.657 42.464H421.105C422.3 41.312 423.452 40.3947 424.561 39.712C425.67 38.9867 426.908 38.368 428.273 37.856ZM425.137 63.072C427.356 63.072 429.041 62.2827 430.193 60.704C431.345 59.1253 431.921 56.8 431.921 53.728C431.921 50.7413 431.43 48.5013 430.449 47.008C429.51 45.472 428.102 44.704 426.225 44.704C424.39 44.704 422.534 45.6213 420.657 47.456L420.593 54.88L420.721 62.112C422.257 62.752 423.729 63.072 425.137 63.072Z" fill="black"/>
</svg>
