<svg width="709" height="664" viewBox="0 0 709 664" fill="none" xmlns="http://www.w3.org/2000/svg">
<path d="M694.543 282.795C668.14 187.645 608.61 96.1779 541.409 44.1543C446.216 -29.5398 348.388 84.8116 230.343 108.435C199.628 113.74 173.628 118.876 151.463 124.097C48.8535 148.266 3.85443 254.095 0.389534 359.455C-0.489441 386.183 0.147624 409.132 2.01275 429.471C13.4599 554.305 82.0153 648.917 197.963 601.266C253.934 578.264 355.159 534.321 415.047 525.65C533.094 508.559 609.814 502.785 656.434 471.3C713.55 432.726 712.971 349.207 694.543 282.795Z" fill="url(#paint0_linear_555_34)"/>
<path d="M283.255 409C292.471 409 299.037 399.194 300.186 390.049C301.876 376.6 305.361 363.408 310.57 350.832C318.209 332.391 329.405 315.634 343.52 301.52C357.634 287.405 374.391 276.209 392.832 268.57C405.408 263.361 418.6 259.876 432.049 258.186C432.6 258.117 433.148 258.059 433.692 258.013C430.48 253.417 426.865 249.101 422.882 245.118C413.968 236.203 403.385 229.132 391.738 224.308C380.09 219.483 367.607 217 355 217H275C266.163 217 259 224.163 259 233V393C259 401.837 266.163 409 275 409H283.255Z" fill="white"/>
<path d="M451 297C451 288.163 443.809 280.897 435.041 281.999C423.715 283.422 412.607 286.357 402.016 290.743C386.487 297.176 372.376 306.604 360.49 318.49C348.604 330.376 339.176 344.487 332.743 360.016C328.357 370.607 325.422 381.716 323.999 393.041C322.897 401.809 330.163 409 339 409L435 409C443.836 409 451 401.836 451 393V297Z" fill="white"/>
<path d="M247.83 624.632C248.822 624.632 249.846 624.76 250.902 625.016C251.99 625.24 252.934 625.544 253.734 625.928L253.062 629.24L252.63 629.384C250.966 628.296 249.318 627.752 247.686 627.752C245.798 627.752 244.326 628.472 243.27 629.912C242.214 631.352 241.686 633.368 241.686 635.96C241.686 638.552 242.23 640.6 243.318 642.104C244.438 643.576 245.974 644.312 247.926 644.312C248.79 644.312 249.686 644.168 250.614 643.88C251.574 643.592 252.47 643.192 253.302 642.68L253.734 642.92L253.302 646.136C251.35 646.968 249.398 647.384 247.446 647.384C244.534 647.384 242.246 646.392 240.582 644.408C238.918 642.392 238.086 639.64 238.086 636.152C238.086 632.6 238.95 629.8 240.678 627.752C242.438 625.672 244.822 624.632 247.83 624.632ZM266.587 624.632C269.563 624.632 271.867 625.608 273.499 627.56C275.163 629.48 275.995 632.2 275.995 635.72C275.995 639.432 275.131 642.312 273.403 644.36C271.675 646.376 269.211 647.384 266.011 647.384C263.003 647.384 260.667 646.424 259.003 644.504C257.371 642.552 256.555 639.816 256.555 636.296C256.555 632.584 257.419 629.72 259.147 627.704C260.907 625.656 263.387 624.632 266.587 624.632ZM266.347 627.32C264.331 627.32 262.795 628.008 261.739 629.384C260.683 630.76 260.155 632.776 260.155 635.432C260.155 638.504 260.667 640.808 261.691 642.344C262.747 643.88 264.267 644.648 266.251 644.648C268.267 644.648 269.803 643.976 270.859 642.632C271.915 641.288 272.443 639.272 272.443 636.584C272.443 633.544 271.915 631.24 270.859 629.672C269.835 628.104 268.331 627.32 266.347 627.32ZM308.992 632.072C309.024 630.76 308.72 629.736 308.08 629C307.44 628.264 306.496 627.896 305.248 627.896C303.2 627.896 301.072 629 298.864 631.208L298.768 637.448L298.96 647H295.072L295.36 632.072C295.392 630.76 295.088 629.736 294.448 629C293.808 628.264 292.864 627.896 291.616 627.896C289.6 627.896 287.424 629.032 285.088 631.304V637.352L285.28 647H281.488L281.728 637.688L281.536 625.256L285.136 624.92V628.136H285.424C287.408 626.376 289.44 625.24 291.52 624.728C293.312 624.728 294.784 625.048 295.936 625.688C297.088 626.296 297.904 627.192 298.384 628.376H298.672C300.688 626.552 302.848 625.336 305.152 624.728C307.584 624.728 309.424 625.288 310.672 626.408C311.92 627.528 312.528 629.128 312.496 631.208L312.4 637.448L312.592 647H308.752L308.992 632.072ZM320.119 637.688L319.975 625.256L323.671 624.92L323.575 637.352L323.671 647H319.927L320.119 637.688ZM321.895 615.176C322.535 615.176 323.047 615.368 323.431 615.752C323.815 616.136 324.007 616.664 324.007 617.336C324.007 618.04 323.799 618.6 323.383 619.016C322.999 619.432 322.455 619.64 321.751 619.64C321.079 619.64 320.551 619.448 320.167 619.064C319.815 618.68 319.639 618.136 319.639 617.432C319.639 616.76 319.831 616.216 320.215 615.8C320.631 615.384 321.191 615.176 321.895 615.176ZM345.376 632.072C345.408 630.76 345.104 629.736 344.464 629C343.824 628.264 342.88 627.896 341.632 627.896C339.616 627.896 337.44 629.032 335.104 631.304V637.352L335.296 647H331.504L331.744 637.688L331.552 625.256L335.152 624.92V628.136H335.44C337.424 626.376 339.456 625.24 341.536 624.728C343.936 624.728 345.76 625.288 347.008 626.408C348.288 627.528 348.912 629.128 348.88 631.208L348.784 637.448L348.976 647H345.136L345.376 632.072ZM375.694 626.888C374.702 627.176 373.23 627.512 371.278 627.896L371.182 628.088C371.886 629.208 372.238 630.568 372.238 632.168C372.238 634.504 371.454 636.36 369.886 637.736C368.35 639.112 366.254 639.8 363.598 639.8C362.542 639.8 361.55 639.672 360.622 639.416C360.078 639.832 359.71 640.168 359.518 640.424C359.326 640.68 359.23 640.968 359.23 641.288C359.23 641.96 359.646 642.44 360.478 642.728C361.31 642.984 362.67 643.256 364.558 643.544C366.414 643.8 367.934 644.088 369.118 644.408C370.302 644.728 371.326 645.256 372.19 645.992C373.054 646.696 373.486 647.688 373.486 648.968C373.486 650.312 373.022 651.544 372.094 652.664C371.198 653.784 369.95 654.664 368.35 655.304C366.782 655.944 365.054 656.264 363.166 656.264C360.606 656.264 358.606 655.672 357.166 654.488C355.758 653.336 355.054 651.832 355.054 649.976C355.822 648.44 357.23 647.048 359.278 645.8V645.56C358.126 645.208 357.23 644.744 356.59 644.168C355.982 643.56 355.678 642.744 355.678 641.72C356.35 640.6 357.326 639.624 358.606 638.792V638.6C357.582 637.96 356.798 637.128 356.254 636.104C355.742 635.048 355.486 633.832 355.486 632.456C355.486 630.056 356.254 628.184 357.79 626.84C359.358 625.464 361.438 624.776 364.03 624.776C365.726 624.776 367.166 625.064 368.35 625.64C370.558 625.224 372.878 624.68 375.31 624.008L375.694 624.296V626.888ZM363.79 637.208C365.39 637.208 366.622 636.76 367.486 635.864C368.382 634.968 368.83 633.72 368.83 632.12C368.83 630.584 368.414 629.4 367.582 628.568C366.75 627.736 365.55 627.32 363.982 627.32C362.382 627.32 361.134 627.752 360.238 628.616C359.342 629.48 358.894 630.712 358.894 632.312C358.894 633.848 359.31 635.048 360.142 635.912C361.006 636.776 362.222 637.208 363.79 637.208ZM370.126 649.688C370.126 648.632 369.582 647.896 368.494 647.48C367.438 647.064 365.822 646.696 363.646 646.376L362.11 646.136C360.894 646.872 359.966 647.576 359.326 648.248C358.718 648.92 358.414 649.624 358.414 650.36C358.414 651.288 358.862 652.056 359.758 652.664C360.686 653.272 361.966 653.576 363.598 653.576C365.454 653.576 367.006 653.192 368.254 652.424C369.502 651.688 370.126 650.776 370.126 649.688ZM393.567 624.68C395.391 624.68 397.151 625.032 398.847 625.736L398.319 628.856L397.743 629C396.143 627.944 394.607 627.416 393.135 627.416C392.047 627.416 391.167 627.72 390.495 628.328C389.823 628.936 389.487 629.672 389.487 630.536C389.487 631.4 389.823 632.104 390.495 632.648C391.199 633.16 392.271 633.752 393.711 634.424C394.959 635 395.951 635.528 396.687 636.008C397.455 636.456 398.111 637.064 398.655 637.832C399.199 638.6 399.471 639.544 399.471 640.664C399.471 641.848 399.167 642.952 398.559 643.976C397.951 645 397.055 645.832 395.871 646.472C394.687 647.08 393.279 647.384 391.647 647.384C389.407 647.384 387.279 646.856 385.263 645.8L385.743 642.536L386.175 642.248C387.071 643.016 388.031 643.608 389.055 644.024C390.111 644.44 391.103 644.648 392.031 644.648C393.215 644.648 394.175 644.328 394.911 643.688C395.647 643.016 396.015 642.232 396.015 641.336C396.015 640.472 395.663 639.784 394.959 639.272C394.287 638.728 393.231 638.12 391.791 637.448C390.543 636.872 389.535 636.36 388.767 635.912C387.999 635.432 387.343 634.792 386.799 633.992C386.255 633.192 385.983 632.2 385.983 631.016C385.983 629.16 386.655 627.64 387.999 626.456C389.375 625.272 391.231 624.68 393.567 624.68ZM413.54 624.632C416.516 624.632 418.82 625.608 420.452 627.56C422.116 629.48 422.948 632.2 422.948 635.72C422.948 639.432 422.084 642.312 420.356 644.36C418.628 646.376 416.164 647.384 412.964 647.384C409.956 647.384 407.62 646.424 405.956 644.504C404.324 642.552 403.508 639.816 403.508 636.296C403.508 632.584 404.372 629.72 406.1 627.704C407.86 625.656 410.34 624.632 413.54 624.632ZM413.3 627.32C411.284 627.32 409.748 628.008 408.692 629.384C407.636 630.76 407.108 632.776 407.108 635.432C407.108 638.504 407.62 640.808 408.644 642.344C409.7 643.88 411.22 644.648 413.204 644.648C415.22 644.648 416.756 643.976 417.812 642.632C418.868 641.288 419.396 639.272 419.396 636.584C419.396 633.544 418.868 631.24 417.812 629.672C416.788 628.104 415.284 627.32 413.3 627.32ZM437.118 624.632C440.094 624.632 442.398 625.608 444.03 627.56C445.694 629.48 446.526 632.2 446.526 635.72C446.526 639.432 445.662 642.312 443.934 644.36C442.206 646.376 439.742 647.384 436.542 647.384C433.534 647.384 431.198 646.424 429.534 644.504C427.902 642.552 427.086 639.816 427.086 636.296C427.086 632.584 427.95 629.72 429.678 627.704C431.438 625.656 433.918 624.632 437.118 624.632ZM436.878 627.32C434.862 627.32 433.326 628.008 432.27 629.384C431.214 630.76 430.686 632.776 430.686 635.432C430.686 638.504 431.198 640.808 432.222 642.344C433.278 643.88 434.798 644.648 436.782 644.648C438.798 644.648 440.334 643.976 441.39 642.632C442.446 641.288 442.974 639.272 442.974 636.584C442.974 633.544 442.446 631.24 441.39 629.672C440.366 628.104 438.862 627.32 436.878 627.32ZM465.892 632.072C465.924 630.76 465.62 629.736 464.98 629C464.34 628.264 463.396 627.896 462.148 627.896C460.132 627.896 457.956 629.032 455.62 631.304V637.352L455.812 647H452.02L452.26 637.688L452.068 625.256L455.668 624.92V628.136H455.956C457.94 626.376 459.972 625.24 462.052 624.728C464.452 624.728 466.276 625.288 467.524 626.408C468.804 627.528 469.428 629.128 469.396 631.208L469.3 637.448L469.492 647H465.652L465.892 632.072Z" fill="black"/>
<defs>
<linearGradient id="paint0_linear_555_34" x1="359.247" y1="-459.841" x2="-331.679" y2="160.345" gradientUnits="userSpaceOnUse">
<stop stop-color="#FEDC2A"/>
<stop offset="0.51418" stop-color="#DD5789"/>
<stop offset="1" stop-color="#7A2C9E"/>
</linearGradient>
</defs>
</svg>
