<svg width="520" height="96" viewBox="0 0 520 96" fill="none" xmlns="http://www.w3.org/2000/svg">
<rect width="96" height="96" rx="15.36" fill="#F0E81A"/>
<path d="M46.4885 23.2007C48.0433 23.8447 49.4827 24.7325 50.7534 25.8283C51.0468 26.0813 51.3312 26.3453 51.6059 26.6201C53.0707 28.0848 54.2326 29.8238 55.0253 31.7375C55.818 33.6513 56.226 35.7025 56.226 37.774C56.226 39.6434 55.8937 41.4963 55.2463 43.2466H56.226C58.2975 43.2466 60.3487 43.6546 62.2625 44.4473C63.8173 45.0913 65.2567 45.979 66.5274 47.0748C66.8208 47.3278 67.1052 47.5919 67.3799 47.8667C68.8447 49.3314 70.0066 51.0703 70.7993 52.9841C71.592 54.8979 72 56.9491 72 59.0206C72 61.092 71.592 63.1432 70.7993 65.057C70.0066 66.9708 68.8446 68.7097 67.3799 70.1744C67.1051 70.4492 66.8208 70.7133 66.5274 70.9663C65.2566 72.0621 63.8173 72.9498 62.2624 73.5938C60.3486 74.3865 58.2975 74.7945 56.226 74.7945H45.9247C43.08 74.7945 40.774 72.4885 40.774 69.6438C40.774 66.7992 43.08 64.4931 45.9247 64.4931H56.226L56.226 64.4944C56.9449 64.4944 57.6567 64.3529 58.3208 64.0778C58.9849 63.8027 59.5883 63.3995 60.0966 62.8912C60.6049 62.3829 61.0081 61.7794 61.2832 61.1153C61.5583 60.4512 61.6999 59.7394 61.6999 59.0206C61.6999 58.3017 61.5583 57.5899 61.2832 56.9258C61.0082 56.2617 60.605 55.6582 60.0967 55.1499C59.5884 54.6416 58.9849 54.2384 58.3208 53.9633C57.6567 53.6882 56.9449 53.5467 56.226 53.5467V53.5479H30.1507C27.306 53.5479 25 51.2419 25 48.3973C25 45.5526 27.306 43.2466 30.1507 43.2466H40.5707C41.2491 43.2319 41.9193 43.0911 42.5468 42.8312C43.2109 42.5561 43.8144 42.1529 44.3227 41.6446C44.831 41.1363 45.2342 40.5329 45.5093 39.8687C45.7844 39.2046 45.9259 38.4928 45.9259 37.774C45.9259 37.0551 45.7844 36.3433 45.5093 35.6792C45.2342 35.0151 44.831 34.4117 44.3227 33.9034C43.8144 33.3951 43.2109 32.9919 42.5468 32.7168C41.8827 32.4417 41.1709 32.3001 40.4521 32.3001V32.3014H30.1507C27.306 32.3014 25 29.9953 25 27.1507C25 24.306 27.306 22 30.1507 22H40.4521C42.5235 22 44.5747 22.408 46.4885 23.2007Z" fill="black"/>
<path d="M25 69.6438C25 66.7992 27.306 64.4931 30.1507 64.4931H33.0479C35.8926 64.4931 38.1986 66.7992 38.1986 69.6438C38.1986 72.4885 35.8926 74.7945 33.0479 74.7945H30.1507C27.306 74.7945 25 72.4885 25 69.6438Z" fill="black"/>
<path d="M111.864 72V37.0909H121.545V72H111.864ZM116.727 32.5909C115.288 32.5909 114.053 32.1136 113.023 31.1591C112.008 30.1894 111.5 29.0303 111.5 27.6818C111.5 26.3485 112.008 25.2045 113.023 24.25C114.053 23.2803 115.288 22.7955 116.727 22.7955C118.167 22.7955 119.394 23.2803 120.409 24.25C121.439 25.2045 121.955 26.3485 121.955 27.6818C121.955 29.0303 121.439 30.1894 120.409 31.1591C119.394 32.1136 118.167 32.5909 116.727 32.5909ZM138.983 51.8182V72H129.301V37.0909H138.528V43.25H138.938C139.71 41.2197 141.006 39.6136 142.824 38.4318C144.642 37.2348 146.847 36.6364 149.438 36.6364C151.862 36.6364 153.975 37.1667 155.778 38.2273C157.581 39.2879 158.983 40.803 159.983 42.7727C160.983 44.7273 161.483 47.0606 161.483 49.7727V72H151.801V51.5C151.816 49.3636 151.271 47.697 150.165 46.5C149.059 45.2879 147.536 44.6818 145.597 44.6818C144.294 44.6818 143.142 44.9621 142.142 45.5227C141.157 46.0833 140.384 46.9015 139.824 47.9773C139.278 49.0379 138.998 50.3182 138.983 51.8182ZM169.295 72V25.4545H178.977V42.9545H179.273C179.697 42.0152 180.311 41.0606 181.114 40.0909C181.932 39.1061 182.992 38.2879 184.295 37.6364C185.614 36.9697 187.25 36.6364 189.205 36.6364C191.75 36.6364 194.098 37.303 196.25 38.6364C198.402 39.9545 200.121 41.947 201.409 44.6136C202.697 47.2652 203.341 50.5909 203.341 54.5909C203.341 58.4848 202.712 61.7727 201.455 64.4545C200.212 67.1212 198.515 69.1439 196.364 70.5227C194.227 71.8864 191.833 72.5682 189.182 72.5682C187.303 72.5682 185.705 72.2576 184.386 71.6364C183.083 71.0152 182.015 70.2348 181.182 69.2955C180.348 68.3409 179.712 67.3788 179.273 66.4091H178.841V72H169.295ZM178.773 54.5455C178.773 56.6212 179.061 58.4318 179.636 59.9773C180.212 61.5227 181.045 62.7273 182.136 63.5909C183.227 64.4394 184.553 64.8636 186.114 64.8636C187.689 64.8636 189.023 64.4318 190.114 63.5682C191.205 62.6894 192.03 61.4773 192.591 59.9318C193.167 58.3712 193.455 56.5758 193.455 54.5455C193.455 52.5303 193.174 50.7576 192.614 49.2273C192.053 47.697 191.227 46.5 190.136 45.6364C189.045 44.7727 187.705 44.3409 186.114 44.3409C184.538 44.3409 183.205 44.7576 182.114 45.5909C181.038 46.4242 180.212 47.6061 179.636 49.1364C179.061 50.6667 178.773 52.4697 178.773 54.5455ZM225.71 72.6818C222.119 72.6818 219.028 71.9545 216.438 70.5C213.862 69.0303 211.877 66.9545 210.483 64.2727C209.089 61.5758 208.392 58.3864 208.392 54.7045C208.392 51.1136 209.089 47.9621 210.483 45.25C211.877 42.5379 213.839 40.4242 216.369 38.9091C218.915 37.3939 221.9 36.6364 225.324 36.6364C227.627 36.6364 229.771 37.0076 231.756 37.75C233.756 38.4773 235.498 39.5758 236.983 41.0455C238.483 42.5152 239.65 44.3636 240.483 46.5909C241.316 48.803 241.733 51.3939 241.733 54.3636V57.0227H212.256V51.0227H232.619C232.619 49.6288 232.316 48.3939 231.71 47.3182C231.104 46.2424 230.263 45.4015 229.188 44.7955C228.127 44.1742 226.892 43.8636 225.483 43.8636C224.013 43.8636 222.71 44.2045 221.574 44.8864C220.453 45.553 219.574 46.4545 218.938 47.5909C218.301 48.7121 217.975 49.9621 217.96 51.3409V57.0455C217.96 58.7727 218.278 60.2652 218.915 61.5227C219.566 62.7803 220.483 63.75 221.665 64.4318C222.847 65.1136 224.248 65.4545 225.869 65.4545C226.945 65.4545 227.93 65.303 228.824 65C229.718 64.697 230.483 64.2424 231.119 63.6364C231.756 63.0303 232.241 62.2879 232.574 61.4091L241.528 62C241.074 64.1515 240.142 66.0303 238.733 67.6364C237.339 69.2273 235.536 70.4697 233.324 71.3636C231.127 72.2424 228.589 72.6818 225.71 72.6818ZM266.619 37.0909V44.3636H245.597V37.0909H266.619ZM250.369 28.7273H260.051V61.2727C260.051 62.1667 260.188 62.8636 260.46 63.3636C260.733 63.8485 261.112 64.1894 261.597 64.3864C262.097 64.5833 262.672 64.6818 263.324 64.6818C263.778 64.6818 264.233 64.6439 264.688 64.5682C265.142 64.4773 265.491 64.4091 265.733 64.3636L267.256 71.5682C266.771 71.7197 266.089 71.8939 265.21 72.0909C264.331 72.303 263.263 72.4318 262.006 72.4773C259.672 72.5682 257.627 72.2576 255.869 71.5455C254.127 70.8333 252.771 69.7273 251.801 68.2273C250.831 66.7273 250.354 64.8333 250.369 62.5455V28.7273ZM282.881 72.6591C280.653 72.6591 278.669 72.2727 276.926 71.5C275.184 70.7121 273.805 69.553 272.79 68.0227C271.79 66.4773 271.29 64.553 271.29 62.25C271.29 60.3106 271.646 58.6818 272.358 57.3636C273.07 56.0455 274.04 54.9848 275.267 54.1818C276.494 53.3788 277.888 52.7727 279.449 52.3636C281.025 51.9545 282.676 51.6667 284.403 51.5C286.434 51.2879 288.07 51.0909 289.312 50.9091C290.555 50.7121 291.456 50.4242 292.017 50.0455C292.578 49.6667 292.858 49.1061 292.858 48.3636V48.2273C292.858 46.7879 292.403 45.6742 291.494 44.8864C290.6 44.0985 289.328 43.7045 287.676 43.7045C285.934 43.7045 284.547 44.0909 283.517 44.8636C282.487 45.6212 281.805 46.5758 281.472 47.7273L272.517 47C272.972 44.8788 273.866 43.0455 275.199 41.5C276.532 39.9394 278.252 38.7424 280.358 37.9091C282.479 37.0606 284.934 36.6364 287.722 36.6364C289.661 36.6364 291.517 36.8636 293.29 37.3182C295.078 37.7727 296.661 38.4773 298.04 39.4318C299.434 40.3864 300.532 41.6136 301.335 43.1136C302.138 44.5985 302.54 46.3788 302.54 48.4545V72H293.358V67.1591H293.085C292.525 68.25 291.775 69.2121 290.835 70.0455C289.896 70.8636 288.767 71.5076 287.449 71.9773C286.131 72.4318 284.608 72.6591 282.881 72.6591ZM285.653 65.9773C287.078 65.9773 288.335 65.697 289.426 65.1364C290.517 64.5606 291.373 63.7879 291.994 62.8182C292.616 61.8485 292.926 60.75 292.926 59.5227V55.8182C292.623 56.0152 292.206 56.197 291.676 56.3636C291.161 56.5152 290.578 56.6591 289.926 56.7955C289.275 56.9167 288.623 57.0303 287.972 57.1364C287.32 57.2273 286.729 57.3106 286.199 57.3864C285.063 57.553 284.07 57.8182 283.222 58.1818C282.373 58.5455 281.714 59.0379 281.244 59.6591C280.775 60.2652 280.54 61.0227 280.54 61.9318C280.54 63.25 281.017 64.2576 281.972 64.9545C282.941 65.6364 284.169 65.9773 285.653 65.9773ZM315.71 72.5909C314.21 72.5909 312.922 72.0606 311.847 71C310.786 69.9242 310.256 68.6364 310.256 67.1364C310.256 65.6515 310.786 64.3788 311.847 63.3182C312.922 62.2576 314.21 61.7273 315.71 61.7273C317.165 61.7273 318.438 62.2576 319.528 63.3182C320.619 64.3788 321.165 65.6515 321.165 67.1364C321.165 68.1364 320.907 69.053 320.392 69.8864C319.892 70.7045 319.233 71.3636 318.415 71.8636C317.597 72.3485 316.695 72.5909 315.71 72.5909ZM344.841 85.8182C341.705 85.8182 339.015 85.3864 336.773 84.5227C334.545 83.6742 332.773 82.5152 331.455 81.0455C330.136 79.5758 329.28 77.9242 328.886 76.0909L337.841 74.8864C338.114 75.5833 338.545 76.2348 339.136 76.8409C339.727 77.447 340.508 77.9318 341.477 78.2955C342.462 78.6742 343.659 78.8636 345.068 78.8636C347.174 78.8636 348.909 78.3485 350.273 77.3182C351.652 76.303 352.341 74.5985 352.341 72.2045V65.8182H351.932C351.508 66.7879 350.871 67.7045 350.023 68.5682C349.174 69.4318 348.083 70.1364 346.75 70.6818C345.417 71.2273 343.826 71.5 341.977 71.5C339.356 71.5 336.97 70.8939 334.818 69.6818C332.682 68.4545 330.977 66.5833 329.705 64.0682C328.447 61.5379 327.818 58.3409 327.818 54.4773C327.818 50.5227 328.462 47.2197 329.75 44.5682C331.038 41.9167 332.75 39.9318 334.886 38.6136C337.038 37.2955 339.394 36.6364 341.955 36.6364C343.909 36.6364 345.545 36.9697 346.864 37.6364C348.182 38.2879 349.242 39.1061 350.045 40.0909C350.864 41.0606 351.492 42.0152 351.932 42.9545H352.295V37.0909H361.909V72.3409C361.909 75.3106 361.182 77.7955 359.727 79.7955C358.273 81.7955 356.258 83.2955 353.682 84.2955C351.121 85.3106 348.174 85.8182 344.841 85.8182ZM345.045 64.2273C346.606 64.2273 347.924 63.8409 349 63.0682C350.091 62.2803 350.924 61.1591 351.5 59.7045C352.091 58.2348 352.386 56.4773 352.386 54.4318C352.386 52.3864 352.098 50.6136 351.523 49.1136C350.947 47.5985 350.114 46.4242 349.023 45.5909C347.932 44.7576 346.606 44.3409 345.045 44.3409C343.455 44.3409 342.114 44.7727 341.023 45.6364C339.932 46.4848 339.106 47.6667 338.545 49.1818C337.985 50.697 337.705 52.447 337.705 54.4318C337.705 56.447 337.985 58.1894 338.545 59.6591C339.121 61.1136 339.947 62.2424 341.023 63.0455C342.114 63.8333 343.455 64.2273 345.045 64.2273ZM369.614 72V37.0909H379V43.1818H379.364C380 41.0152 381.068 39.3788 382.568 38.2727C384.068 37.1515 385.795 36.5909 387.75 36.5909C388.235 36.5909 388.758 36.6212 389.318 36.6818C389.879 36.7424 390.371 36.8258 390.795 36.9318V45.5227C390.341 45.3864 389.712 45.2652 388.909 45.1591C388.106 45.053 387.371 45 386.705 45C385.28 45 384.008 45.3106 382.886 45.9318C381.78 46.5379 380.902 47.3864 380.25 48.4773C379.614 49.5682 379.295 50.8258 379.295 52.25V72H369.614ZM409.949 72.6818C406.419 72.6818 403.366 71.9318 400.79 70.4318C398.229 68.9167 396.252 66.8106 394.858 64.1136C393.464 61.4015 392.767 58.2576 392.767 54.6818C392.767 51.0758 393.464 47.9242 394.858 45.2273C396.252 42.5152 398.229 40.4091 400.79 38.9091C403.366 37.3939 406.419 36.6364 409.949 36.6364C413.479 36.6364 416.525 37.3939 419.085 38.9091C421.661 40.4091 423.646 42.5152 425.04 45.2273C426.434 47.9242 427.131 51.0758 427.131 54.6818C427.131 58.2576 426.434 61.4015 425.04 64.1136C423.646 66.8106 421.661 68.9167 419.085 70.4318C416.525 71.9318 413.479 72.6818 409.949 72.6818ZM409.994 65.1818C411.6 65.1818 412.941 64.7273 414.017 63.8182C415.093 62.8939 415.903 61.6364 416.449 60.0455C417.009 58.4545 417.29 56.6439 417.29 54.6136C417.29 52.5833 417.009 50.7727 416.449 49.1818C415.903 47.5909 415.093 46.3333 414.017 45.4091C412.941 44.4848 411.6 44.0227 409.994 44.0227C408.373 44.0227 407.009 44.4848 405.903 45.4091C404.813 46.3333 403.987 47.5909 403.426 49.1818C402.881 50.7727 402.608 52.5833 402.608 54.6136C402.608 56.6439 402.881 58.4545 403.426 60.0455C403.987 61.6364 404.813 62.8939 405.903 63.8182C407.009 64.7273 408.373 65.1818 409.994 65.1818ZM455.812 57.1364V37.0909H465.494V72H456.199V65.6591H455.835C455.047 67.7045 453.737 69.3485 451.903 70.5909C450.085 71.8333 447.866 72.4545 445.244 72.4545C442.911 72.4545 440.858 71.9242 439.085 70.8636C437.313 69.803 435.926 68.2955 434.926 66.3409C433.941 64.3864 433.441 62.0455 433.426 59.3182V37.0909H443.108V57.5909C443.123 59.6515 443.676 61.2803 444.767 62.4773C445.858 63.6742 447.32 64.2727 449.153 64.2727C450.32 64.2727 451.411 64.0076 452.426 63.4773C453.441 62.9318 454.259 62.1288 454.881 61.0682C455.517 60.0076 455.828 58.697 455.812 57.1364ZM473.239 85.0909V37.0909H482.784V42.9545H483.216C483.64 42.0152 484.254 41.0606 485.057 40.0909C485.875 39.1061 486.936 38.2879 488.239 37.6364C489.557 36.9697 491.193 36.6364 493.148 36.6364C495.693 36.6364 498.042 37.303 500.193 38.6364C502.345 39.9545 504.064 41.947 505.352 44.6136C506.64 47.2652 507.284 50.5909 507.284 54.5909C507.284 58.4848 506.655 61.7727 505.398 64.4545C504.155 67.1212 502.458 69.1439 500.307 70.5227C498.17 71.8864 495.777 72.5682 493.125 72.5682C491.246 72.5682 489.648 72.2576 488.33 71.6364C487.027 71.0152 485.958 70.2348 485.125 69.2955C484.292 68.3409 483.655 67.3788 483.216 66.4091H482.92V85.0909H473.239ZM482.716 54.5455C482.716 56.6212 483.004 58.4318 483.58 59.9773C484.155 61.5227 484.989 62.7273 486.08 63.5909C487.17 64.4394 488.496 64.8636 490.057 64.8636C491.633 64.8636 492.966 64.4318 494.057 63.5682C495.148 62.6894 495.973 61.4773 496.534 59.9318C497.11 58.3712 497.398 56.5758 497.398 54.5455C497.398 52.5303 497.117 50.7576 496.557 49.2273C495.996 47.697 495.17 46.5 494.08 45.6364C492.989 44.7727 491.648 44.3409 490.057 44.3409C488.481 44.3409 487.148 44.7576 486.057 45.5909C484.981 46.4242 484.155 47.6061 483.58 49.1364C483.004 50.6667 482.716 52.4697 482.716 54.5455Z" fill="black"/>
</svg>
